<?xml version="1.0" standalone="no"?>
<!DOCTYPE svg PUBLIC "-//W3C//DTD SVG 20010904//EN"
 "http://www.w3.org/TR/2001/REC-SVG-20010904/DTD/svg10.dtd">
<svg version="1.0" xmlns="http://www.w3.org/2000/svg"
 width="697.000000pt" height="703.000000pt" viewBox="0 0 697.000000 703.000000"
 preserveAspectRatio="xMidYMid meet">

<g transform="translate(0.000000,703.000000) scale(0.100000,-0.100000)"
fill="#000000" stroke="none">
<path d="M1836 6898 c3 -4 -9 -5 -27 -1 -23 4 -30 3 -25 -5 4 -7 13 -12 19
-12 9 0 11 -76 8 -321 -2 -218 0 -324 7 -328 7 -4 6 -17 -5 -39 -18 -38 -16
-42 29 -49 18 -3 35 -7 37 -9 9 -8 -48 -4 -73 6 -17 6 -26 6 -26 0 0 -6 9 -10
20 -10 11 0 20 -5 20 -11 0 -7 -12 -8 -32 -4 -25 5 -29 4 -18 -4 19 -14 57
-14 65 -1 3 6 16 10 28 9 21 -1 20 -2 -3 -10 -18 -6 -7 -8 40 -6 127 5 258 94
320 216 93 185 30 409 -147 525 -21 13 -47 26 -58 28 -11 2 -23 7 -26 11 -8
11 -159 25 -153 15z m54 -12 c0 -2 -11 -6 -25 -8 -14 -3 -25 -1 -25 3 0 5 11
9 25 9 14 0 25 -2 25 -4z m55 -14 c-3 -3 -11 0 -18 7 -9 10 -8 11 6 5 10 -3
15 -9 12 -12z m-20 -732 c3 -6 -1 -7 -9 -4 -18 7 -21 14 -7 14 6 0 13 -4 16
-10z"/>
<path d="M1735 6880 c3 -5 16 -10 28 -9 21 0 21 1 2 9 -28 12 -37 12 -30 0z"/>
<path d="M4546 6675 c-9 -26 -7 -32 5 -12 6 10 9 21 6 23 -2 3 -7 -2 -11 -11z"/>
<path d="M4516 6579 c-7 -37 -8 -155 -1 -147 5 5 15 178 10 178 -1 0 -5 -14
-9 -31z"/>
<path d="M4531 6504 c0 -11 3 -14 6 -6 3 7 2 16 -1 19 -3 4 -6 -2 -5 -13z"/>
<path d="M3320 6475 c-15 -17 -17 -53 -30 -409 -5 -142 -11 -260 -14 -263 -3
-3 -17 4 -33 15 -77 54 -340 161 -363 147 -6 -3 -10 -2 -10 3 0 12 -183 50
-310 63 -109 12 -437 8 -459 -5 -9 -6 -7 -12 6 -22 11 -8 13 -13 5 -14 -8 0
-6 -7 7 -21 15 -17 17 -24 8 -34 -7 -7 -15 -11 -19 -8 -5 2 -8 -1 -8 -6 0 -6
5 -11 10 -11 12 0 14 -149 2 -166 -4 -6 -14 -14 -22 -18 -8 -3 -4 -3 10 0 14
3 41 8 60 9 l35 4 -35 -8 c-19 -5 -27 -9 -18 -10 9 0 18 -6 20 -13 3 -9 58
-13 204 -14 197 -2 284 -10 631 -60 94 -13 194 -24 222 -24 l51 0 0 -37 c1
-77 -52 -1499 -56 -1520 -4 -23 -4 -23 -217 -23 -156 0 -218 -3 -231 -13 -13
-10 -20 -42 -31 -147 -9 -74 -16 -141 -18 -147 -1 -7 -34 16 -73 52 -39 35
-75 61 -79 57 -5 -4 -5 -2 -2 5 4 7 -31 46 -87 96 -85 77 -97 85 -130 82 -29
-1 -34 1 -25 11 8 10 17 11 33 3 24 -12 -14 25 -119 116 -91 78 -189 168 -193
177 -2 4 -11 4 -20 1 -9 -3 -14 -2 -9 2 8 10 -21 45 -37 45 -6 0 0 -10 14 -21
18 -15 20 -19 7 -15 -12 4 -17 2 -14 -6 2 -7 9 -12 15 -11 6 2 9 -13 7 -35 -4
-51 3 -58 34 -29 l26 25 38 -33 c24 -21 35 -38 31 -48 -3 -9 -11 -14 -18 -11
-7 3 -12 -4 -12 -16 0 -11 3 -20 6 -20 10 0 38 38 33 44 -4 3 -2 6 4 6 13 0
43 -33 43 -48 0 -15 -17 -15 -26 0 -5 7 -3 8 6 3 9 -5 11 -4 6 3 -10 16 -47
-4 -53 -29 -3 -10 -14 -19 -24 -19 -11 0 -19 -4 -19 -10 0 -9 14 -14 33 -11 4
0 7 -3 7 -9 0 -17 38 -11 43 8 4 16 5 16 6 -1 0 -10 -5 -20 -13 -23 -8 -3 -12
-12 -9 -20 3 -9 -1 -14 -11 -14 -9 0 -19 -7 -22 -15 -4 -8 -13 -15 -21 -15 -8
0 -12 4 -8 9 3 6 -1 13 -8 18 -19 12 -42 69 -57 141 -7 34 -17 65 -21 68 -5 3
-9 16 -9 30 0 14 -6 35 -12 47 -7 12 -13 34 -13 48 -1 30 -44 78 -64 71 -9 -3
-11 0 -6 8 5 8 3 11 -5 8 -31 -10 -61 -70 -112 -225 -12 -35 -25 -63 -30 -63
-5 0 -7 -4 -3 -9 3 -5 1 -12 -4 -15 -11 -7 -16 7 -42 109 -26 103 -108 399
-151 544 -17 57 -27 75 -46 82 -28 11 -58 -3 -66 -28 -7 -26 -32 -194 -56
-373 -11 -85 -25 -180 -30 -210 -5 -30 -17 -104 -25 -164 -9 -61 -18 -112 -21
-115 -3 -3 -95 -8 -205 -11 -163 -4 -202 -8 -209 -20 -6 -8 -8 -21 -5 -28 3
-8 5 -17 5 -22 0 -4 10 -10 23 -13 39 -10 453 -10 470 -1 19 11 30 70 72 363
27 195 44 285 51 278 3 -3 22 -69 43 -148 21 -79 57 -218 81 -308 45 -170 61
-201 104 -201 27 0 38 11 55 60 16 43 24 64 44 110 8 19 23 59 33 88 19 54 34
68 34 31 0 -11 6 -41 14 -67 8 -26 26 -85 39 -132 l24 -85 44 -8 c79 -14 90
-17 84 -26 -3 -5 -1 -11 4 -13 6 -1 11 -39 13 -82 3 -83 -6 -101 -35 -71 -19
19 -23 19 -30 1 -4 -10 -1 -13 8 -10 7 3 21 -5 29 -19 22 -32 19 -295 -3 -321
-10 -12 -11 -20 -4 -27 8 -8 13 -5 18 10 3 12 9 21 13 21 4 0 6 -156 4 -347
-2 -258 -6 -349 -15 -356 -7 -5 -3 -6 11 -2 27 8 30 -11 2 -20 -28 -9 -25 -27
4 -19 20 5 25 0 34 -25 7 -21 8 -31 1 -31 -6 0 -8 -10 -4 -22 5 -18 4 -20 -4
-8 -6 8 -8 27 -5 43 3 15 3 27 -1 27 -13 0 -55 -33 -55 -44 1 -14 59 -92 67
-88 3 2 12 -10 21 -26 25 -44 72 -96 80 -88 3 4 1 11 -6 15 -10 6 -9 11 4 22
16 12 17 12 11 -3 -4 -11 1 -25 11 -35 10 -10 24 -27 32 -38 14 -19 14 -19 -4
-5 -19 15 -19 14 -2 -16 17 -28 160 -173 246 -250 239 -211 469 -312 594 -260
89 37 138 114 180 286 68 280 58 557 -28 807 -47 136 -128 299 -210 420 -21
31 -22 31 -34 12 -8 -13 -21 -19 -35 -17 -19 3 -23 11 -27 61 -3 31 -2 57 2
57 5 0 8 -8 9 -17 0 -10 2 -34 2 -53 2 -24 7 -36 20 -38 13 -3 17 3 17 28 0
35 -46 100 -167 238 -83 93 -80 79 -58 262 8 69 15 128 15 133 0 4 101 7 224
7 179 0 226 3 235 14 12 14 15 90 56 1196 17 475 26 653 31 647 2 -2 27 -203
54 -448 112 -978 141 -1237 146 -1299 4 -36 13 -75 20 -87 l14 -23 330 0 330
0 14 23 c8 12 31 82 52 154 22 73 42 133 45 133 7 0 59 -159 59 -179 0 -7 13
-51 30 -99 16 -48 50 -154 76 -235 47 -150 61 -177 93 -177 31 0 41 23 75 168
18 76 36 144 40 150 5 9 153 12 567 12 l559 0 12 25 c9 21 8 28 -7 45 -18 20
-30 20 -605 20 -477 0 -590 -3 -599 -13 -6 -8 -21 -42 -34 -76 -24 -63 -24
-63 -35 -34 -6 15 -28 80 -47 143 -20 63 -40 122 -44 131 -5 8 -30 82 -55 164
-26 82 -51 154 -57 162 -14 16 -53 17 -67 1 -5 -7 -36 -106 -68 -220 l-59
-208 -272 0 -272 0 -6 33 c-3 17 -12 95 -20 172 -8 77 -26 239 -40 360 -14
121 -44 380 -65 575 -22 195 -43 374 -46 398 l-6 42 48 1 c27 1 40 3 29 6 -11
2 -29 6 -41 8 -11 3 -21 10 -22 17 -1 7 -6 37 -10 65 -8 52 -4 76 14 72 5 -1
16 -1 24 0 13 1 13 3 1 10 -9 6 -22 6 -34 -1 -10 -5 -21 -8 -23 -5 -3 2 -20
141 -39 308 -39 343 -43 369 -57 387 -14 17 -43 15 -58 -3z m-1066 -454 c19
-7 19 -8 -2 -13 -12 -4 -20 -2 -17 2 3 5 -5 11 -17 13 -19 4 -20 4 -3 5 11 0
29 -3 39 -7z m219 2 c-7 -2 -19 -2 -25 0 -7 3 -2 5 12 5 14 0 19 -2 13 -5z
m-283 -7 c0 -2 -13 -6 -30 -8 -16 -3 -30 -1 -30 4 0 4 14 8 30 8 17 0 30 -2
30 -4z m-10 -66 c0 -5 -4 -10 -10 -10 -5 0 -10 5 -10 10 0 6 5 10 10 10 6 0
10 -4 10 -10z m-13 -142 c-3 -8 -6 -5 -6 6 -1 11 2 17 5 13 3 -3 4 -12 1 -19z
m93 -78 c20 -6 21 -8 5 -8 -11 0 -29 3 -40 8 -25 11 1 11 35 0z m-30 -20 c11
-7 5 -8 -20 -4 -43 8 -51 14 -19 14 13 0 31 -5 39 -10z m-183 -1408 c8 -5 4
-16 -13 -37 -13 -17 -24 -25 -24 -19 0 6 7 17 15 24 8 7 15 17 15 22 0 6 -7 5
-15 -2 -14 -12 -22 0 -8 13 8 9 15 9 30 -1z m211 -197 c16 -14 37 -32 48 -40
18 -13 18 -14 -3 -8 -24 6 -32 -12 -10 -20 6 -3 8 -6 2 -6 -5 0 -17 4 -25 9
-13 9 -13 11 0 19 8 6 11 13 7 17 -3 4 -15 1 -24 -7 -16 -12 -17 -12 -6 2 15
19 0 39 -29 39 -10 0 -18 5 -18 10 0 18 30 10 58 -15z m-18 -19 c0 -9 -40 -13
-46 -5 -3 5 6 9 20 9 14 0 26 -2 26 -4z m-60 -40 c0 -3 -4 -8 -10 -11 -5 -3
-10 -1 -10 4 0 6 5 11 10 11 6 0 10 -2 10 -4z m65 -6 c3 -5 2 -10 -4 -10 -5 0
-13 5 -16 10 -3 6 -2 10 4 10 5 0 13 -4 16 -10z m-92 -37 c-7 -2 -19 -2 -25 0
-7 3 -2 5 12 5 14 0 19 -2 13 -5z m92 -3 c-3 -5 -12 -10 -18 -10 -7 0 -6 4 3
10 19 12 23 12 15 0z m271 -127 c-7 -7 -21 -4 -21 5 0 4 -4 14 -9 22 -6 9 -1
7 12 -4 12 -11 20 -21 18 -23z m-261 -23 c3 -5 1 -10 -4 -10 -6 0 -11 5 -11
10 0 6 2 10 4 10 3 0 8 -4 11 -10z m415 -124 c9 -15 3 -12 -19 8 -17 17 -31
31 -31 33 0 9 39 -23 50 -41z m-516 -81 c-10 -39 3 -76 24 -68 16 6 16 5 -1
-11 -22 -22 -22 -22 -34 29 -8 37 -9 34 -9 -32 0 -72 8 -93 21 -53 4 11 19 28
33 38 15 9 30 21 33 25 4 5 15 5 25 -2 18 -10 18 -10 -2 -11 -29 0 -70 -35
-78 -65 -4 -14 -11 -23 -16 -20 -5 3 -12 -22 -16 -55 -4 -33 -11 -63 -17 -67
-6 -4 -8 0 -4 11 4 10 7 75 7 146 0 104 3 132 16 144 21 22 25 20 18 -9z m701
-105 c-7 -11 31 -51 40 -42 4 4 6 3 4 -3 -1 -5 3 -23 9 -38 7 -16 12 -64 12
-107 0 -68 -3 -79 -19 -85 -40 -12 -51 3 -51 74 0 88 -7 107 -41 122 -35 14
-31 24 6 15 35 -9 55 -59 55 -139 0 -50 3 -64 15 -64 10 0 15 12 16 36 6 140
-8 181 -67 203 -35 12 -49 34 -15 23 11 -3 22 -1 26 5 3 5 8 10 11 10 3 0 3
-4 -1 -10z m-550 -34 c0 -22 -7 -33 -30 -46 -28 -15 -30 -21 -32 -76 -4 -94
-11 -121 -33 -127 -10 -3 -26 1 -36 7 -13 10 -15 28 -12 113 3 97 4 103 33
133 25 26 36 30 70 28 37 -3 40 -5 40 -32z m135 14 c0 -5 -6 -13 -13 -17 -28
-17 -47 -59 -47 -102 0 -61 29 -105 80 -120 22 -7 38 -16 35 -21 -13 -21 -110
23 -120 54 -29 95 -23 149 20 192 25 25 45 31 45 14z m134 -9 c19 -21 18 -62
0 -68 -7 -2 -10 5 -7 19 3 14 -4 32 -17 46 -14 15 -17 22 -7 22 8 0 22 -9 31
-19z m-237 -67 c-4 -15 -5 -14 -6 4 -1 15 -5 21 -13 16 -7 -5 -8 -3 -3 5 10
18 28 -2 22 -25z m345 -37 c-4 -70 -22 -85 -22 -17 0 35 17 99 23 89 1 -2 1
-34 -1 -72z m-237 33 c-21 -41 -19 -58 14 -91 22 -22 25 -29 13 -29 -56 1 -86
102 -40 134 30 21 31 21 13 -14z m-302 -91 c-5 -5 -7 7 -4 29 5 34 6 35 9 8 2
-16 0 -32 -5 -37z m327 40 c0 -11 -4 -17 -10 -14 -5 3 -10 13 -10 21 0 8 5 14
10 14 6 0 10 -9 10 -21z m145 -80 c4 -12 2 -26 -4 -32 -8 -8 -11 -6 -11 9 0
11 -5 25 -12 32 -9 9 -8 12 4 12 9 0 20 -9 23 -21z m204 4 c14 -26 -5 -53 -37
-52 l-27 0 25 10 c36 15 37 19 10 39 -25 19 -25 20 -3 20 12 0 26 -8 32 -17z
m-496 -28 c-3 -9 -8 -14 -10 -11 -3 3 -2 9 2 15 9 16 15 13 8 -4z m-108 -55
c7 -12 -12 -12 -40 0 -18 8 -17 9 7 9 15 1 30 -3 33 -9z m-89 -696 c-9 -23 23
-64 49 -64 13 0 26 -6 28 -12 4 -10 8 -9 16 2 9 13 11 13 11 -2 0 -10 -4 -18
-10 -18 -5 0 -10 -13 -10 -30 0 -21 4 -28 14 -24 8 3 17 1 21 -5 4 -7 -2 -10
-16 -8 -17 3 -26 14 -34 43 -7 26 -17 40 -30 42 -28 4 -67 66 -52 81 15 15 20
14 13 -5z m338 -397 c4 4 4 0 0 -10 -8 -22 -11 -22 -25 6 -11 19 -10 20 3 10
8 -7 18 -10 22 -6z m140 -143 c3 -8 2 -12 -4 -9 -6 3 -10 10 -10 16 0 14 7 11
14 -7z"/>
<path d="M2226 3505 c-14 -10 -17 -18 -10 -25 13 -13 76 8 71 24 -6 17 -40 18
-61 1z"/>
<path d="M2193 3460 c3 -11 1 -17 -4 -14 -6 3 -9 -27 -7 -77 4 -113 23 -115
31 -4 3 47 4 92 0 100 -8 23 -26 18 -20 -5z"/>
<path d="M4520 6410 c1 -8 7 -24 15 -34 19 -25 19 -16 0 20 -8 16 -15 22 -15
14z"/>
<path d="M4540 6345 c0 -5 5 -17 10 -25 5 -8 10 -10 10 -5 0 6 -5 17 -10 25
-5 8 -10 11 -10 5z"/>
<path d="M4570 6291 c0 -6 4 -13 10 -16 6 -3 7 1 4 9 -7 18 -14 21 -14 7z"/>
<path d="M1690 6137 c0 -3 15 -10 32 -16 18 -6 28 -7 23 -2 -12 10 -55 25 -55
18z"/>
<path d="M2015 6010 c-25 -11 1 -11 35 0 20 6 21 8 5 8 -11 0 -29 -3 -40 -8z"/>
<path d="M1907 5985 c-33 -11 -59 -26 -46 -25 15 1 111 39 99 39 -8 0 -32 -6
-53 -14z"/>
<path d="M2068 5993 c7 -3 16 -2 19 1 4 3 -2 6 -13 5 -11 0 -14 -3 -6 -6z"/>
<path d="M1945 5970 c-3 -5 1 -10 9 -10 8 0 18 5 21 10 3 6 -1 10 -9 10 -8 0
-18 -4 -21 -10z"/>
<path d="M2013 5973 c9 -2 23 -2 30 0 6 3 -1 5 -18 5 -16 0 -22 -2 -12 -5z"/>
<path d="M1895 5950 c-3 -6 1 -7 9 -4 18 7 21 14 7 14 -6 0 -13 -4 -16 -10z"/>
<path d="M1995 5947 c22 -18 55 -22 55 -7 0 6 -9 10 -19 10 -11 0 -28 3 -38 6
-16 6 -16 5 2 -9z"/>
<path d="M1780 5940 c-9 -6 -10 -10 -3 -10 6 0 15 5 18 10 8 12 4 12 -15 0z"/>
<path d="M1720 5916 c0 -2 7 -7 16 -10 8 -3 12 -2 9 4 -6 10 -25 14 -25 6z"/>
<path d="M3630 5870 c-19 -11 -31 -19 -27 -20 11 0 67 29 67 35 0 7 -1 7 -40
-15z"/>
<path d="M3570 5840 c-9 -6 -10 -10 -3 -10 6 0 15 5 18 10 8 12 4 12 -15 0z"/>
<path d="M2019 5705 c0 -5 -1 -18 0 -27 2 -12 -5 -18 -17 -18 -24 0 -96 -29
-89 -36 3 -3 16 0 29 7 12 7 57 20 98 30 41 9 66 18 55 19 -13 1 -6 7 20 15
34 11 36 14 14 14 -15 1 -38 -8 -52 -19 -32 -25 -36 -25 -47 3 -5 12 -10 18
-11 12z"/>
<path d="M2133 5683 c9 -2 23 -2 30 0 6 3 -1 5 -18 5 -16 0 -22 -2 -12 -5z"/>
<path d="M1933 5665 c-18 -8 -33 -16 -33 -19 0 -3 15 1 33 8 17 7 39 16 47 19
13 5 13 5 0 6 -8 0 -30 -6 -47 -14z"/>
<path d="M1860 5650 c-8 -5 -10 -10 -5 -10 6 0 17 5 25 10 8 5 11 10 5 10 -5
0 -17 -5 -25 -10z"/>
<path d="M1852 5608 c7 -4 8 -8 2 -8 -5 0 -19 -7 -30 -15 -10 -9 1 -6 26 6 25
12 46 22 48 24 1 1 -12 2 -28 2 -20 0 -26 -3 -18 -9z"/>
<path d="M1756 5547 c3 -10 9 -15 12 -12 3 3 0 11 -7 18 -10 9 -11 8 -5 -6z"/>
<path d="M1715 5505 c-16 -14 -25 -25 -19 -25 6 0 21 11 34 25 30 32 24 31
-15 0z"/>
<path d="M2598 5443 c7 -3 16 -2 19 1 4 3 -2 6 -13 5 -11 0 -14 -3 -6 -6z"/>
<path d="M2715 5431 c-3 -6 1 -13 9 -18 8 -4 14 -12 13 -17 -1 -5 8 -15 20
-23 19 -13 21 -13 18 4 -2 10 -4 20 -5 23 -1 3 -2 8 -1 12 0 4 -7 4 -16 1 -11
-4 -14 -3 -9 5 5 8 1 10 -10 5 -12 -4 -15 -3 -10 5 4 7 5 12 2 12 -3 0 -7 -4
-11 -9z m50 -41 c3 -5 2 -10 -4 -10 -5 0 -13 5 -16 10 -3 6 -2 10 4 10 5 0 13
-4 16 -10z"/>
<path d="M2588 5413 c7 -3 16 -2 19 1 4 3 -2 6 -13 5 -11 0 -14 -3 -6 -6z"/>
<path d="M2787 5399 c7 -9 9 -20 5 -25 -4 -5 -3 -6 2 -2 5 4 22 -2 37 -13 44
-31 35 -17 -13 21 -24 19 -37 27 -31 19z"/>
<path d="M2797 5353 c-4 -3 -7 -11 -7 -17 0 -6 5 -5 12 2 6 6 9 14 7 17 -3 3
-9 2 -12 -2z"/>
<path d="M2830 5336 c0 -2 8 -10 18 -17 15 -13 16 -12 3 4 -13 16 -21 21 -21
13z"/>
<path d="M2829 5296 c13 -13 29 -22 36 -20 7 3 27 -14 44 -37 17 -24 31 -37
31 -31 0 7 -11 25 -25 40 -14 15 -25 32 -25 39 0 7 -10 10 -25 7 -14 -2 -25 0
-25 5 0 5 -8 12 -17 15 -13 5 -12 1 6 -18z"/>
<path d="M2605 5300 c3 -5 8 -10 11 -10 2 0 4 5 4 10 0 6 -5 10 -11 10 -5 0
-7 -4 -4 -10z"/>
<path d="M2910 5282 c6 -13 14 -21 18 -18 3 4 -2 14 -12 24 -18 16 -18 16 -6
-6z"/>
<path d="M1560 5259 c-7 -11 -10 -23 -7 -25 2 -2 9 7 15 21 14 30 7 33 -8 4z"/>
<path d="M2950 5189 c0 -5 -4 -8 -9 -4 -5 3 -13 0 -17 -6 -5 -8 -3 -9 6 -4 10
6 12 4 7 -9 -5 -11 -3 -15 5 -10 8 5 9 1 4 -12 -4 -10 -4 -15 1 -11 8 8 14 67
7 67 -2 0 -4 -5 -4 -11z"/>
<path d="M2973 5179 c-2 -23 3 -25 10 -4 4 8 3 16 -1 19 -4 3 -9 -4 -9 -15z"/>
<path d="M2613 5130 c0 -36 2 -50 4 -32 2 17 2 47 0 65 -2 17 -4 3 -4 -33z"/>
<path d="M2970 5136 c0 -8 -5 -16 -10 -18 -6 -2 -5 -19 4 -48 8 -25 14 -38 14
-30 0 8 -3 26 -7 40 -5 16 -3 31 6 42 10 11 11 18 4 23 -6 3 -11 0 -11 -9z"/>
<path d="M2991 5121 c-7 -12 -10 -25 -7 -29 3 -3 6 0 6 6 0 7 4 12 9 12 5 0 5
-15 1 -35 -4 -19 -4 -37 0 -40 11 -7 19 65 10 90 -7 18 -8 18 -19 -4z"/>
<path d="M3025 5043 c3 -23 1 -44 -4 -47 -4 -3 -6 -28 -3 -56 4 -48 -3 -61
-24 -40 -11 11 -13 -109 -1 -128 12 -19 -17 -44 -33 -29 -10 10 -12 8 -7 -5 4
-10 2 -18 -2 -18 -5 0 -11 5 -13 11 -2 7 -9 5 -17 -5 -12 -14 -12 -16 4 -10
11 5 16 4 12 -3 -4 -5 0 -19 9 -29 14 -18 15 -18 4 4 -9 18 -8 22 5 22 8 0 18
0 23 1 17 1 33 49 22 68 -13 25 -13 64 0 56 6 -3 10 3 10 14 0 11 4 22 9 25
11 7 1 -45 -12 -62 -7 -9 -7 -16 0 -23 22 -22 40 193 22 261 -8 34 -8 34 -4
-7z"/>
<path d="M1531 5004 c0 -11 3 -14 6 -6 3 7 2 16 -1 19 -3 4 -6 -2 -5 -13z"/>
<path d="M2984 5006 c-3 -8 -2 -22 3 -31 8 -13 10 -10 10 14 0 34 -5 39 -13
17z"/>
<path d="M2825 4977 c-4 -10 -5 -21 -1 -24 10 -10 18 4 13 24 -4 17 -4 17 -12
0z"/>
<path d="M2971 4864 c0 -11 3 -14 6 -6 3 7 2 16 -1 19 -3 4 -6 -2 -5 -13z"/>
<path d="M2600 4861 c0 -6 4 -13 10 -16 6 -3 7 1 4 9 -7 18 -14 21 -14 7z"/>
<path d="M2950 4792 c0 -5 7 -15 15 -22 8 -7 15 -9 15 -6 0 4 -7 14 -15 22 -8
9 -15 11 -15 6z"/>
<path d="M2422 4770 c0 -14 2 -19 5 -12 2 6 2 18 0 25 -3 6 -5 1 -5 -13z"/>
<path d="M2613 4750 c0 -25 2 -35 4 -22 2 12 2 32 0 45 -2 12 -4 2 -4 -23z"/>
<path d="M1626 4761 c-3 -5 2 -15 12 -22 15 -12 16 -12 5 2 -7 9 -10 19 -6 22
3 4 4 7 0 7 -3 0 -8 -4 -11 -9z"/>
<path d="M1650 4716 c0 -2 7 -7 16 -10 8 -3 12 -2 9 4 -6 10 -25 14 -25 6z"/>
<path d="M1680 4686 c0 -2 8 -10 18 -17 15 -13 16 -12 3 4 -13 16 -21 21 -21
13z"/>
<path d="M2890 4681 c0 -6 4 -13 10 -16 6 -3 7 1 4 9 -7 18 -14 21 -14 7z"/>
<path d="M2920 4683 c0 -6 8 -17 18 -24 16 -13 16 -13 2 6 -8 11 -16 22 -17
24 -2 2 -3 0 -3 -6z"/>
<path d="M1696 4638 c3 -5 10 -6 15 -3 13 9 11 12 -6 12 -8 0 -12 -4 -9 -9z"/>
<path d="M2900 4635 c-7 -8 -17 -12 -23 -8 -6 3 -7 1 -3 -5 12 -20 -3 -33 -25
-22 -27 15 -24 5 6 -14 18 -12 24 -13 23 -4 -2 7 2 12 8 11 6 -1 22 10 35 25
l24 27 -27 -24 c-30 -27 -38 -19 -11 11 9 10 14 18 11 18 -3 0 -11 -7 -18 -15z"/>
<path d="M1763 4586 c11 -16 8 -28 -5 -20 -8 5 -8 1 2 -12 22 -29 24 -30 17
-11 -10 28 2 20 56 -35 28 -29 42 -42 31 -28 -10 14 -39 45 -64 70 -25 25 -42
41 -37 36z"/>
<path d="M2585 4590 c-3 -5 -1 -10 4 -10 6 0 11 5 11 10 0 6 -2 10 -4 10 -3 0
-8 -4 -11 -10z"/>
<path d="M2835 4560 c2 -11 1 -20 -3 -20 -4 -1 -20 -12 -37 -26 -35 -30 -15
-22 32 14 19 14 30 29 26 38 -8 21 -22 17 -18 -6z"/>
<path d="M2700 4526 l-25 -14 26 1 c14 1 26 8 26 15 0 6 -1 12 -1 12 -1 -1
-12 -7 -26 -14z"/>
<path d="M1840 4450 c0 -5 5 -10 10 -10 6 0 10 5 10 10 0 6 -4 10 -10 10 -5 0
-10 -4 -10 -10z"/>
<path d="M2052 4250 c-6 -11 -12 -32 -12 -47 0 -20 3 -24 9 -14 5 7 6 22 4 32
-8 28 4 23 22 -8 15 -27 15 -27 9 -3 -7 25 -7 25 15 6 30 -27 26 -10 -7 25
-26 28 -27 29 -40 9z"/>
<path d="M2040 4140 c0 -5 5 -10 11 -10 5 0 7 5 4 10 -3 6 -8 10 -11 10 -2 0
-4 -4 -4 -10z"/>
<path d="M678 4013 c-80 -92 -70 -578 27 -1403 41 -340 54 -418 90 -527 72
-217 169 -367 363 -567 155 -158 299 -265 722 -533 606 -383 1494 -936 1505
-936 6 0 100 56 210 125 110 69 373 234 585 366 1056 658 1173 736 1350 897
124 112 242 250 318 370 57 91 123 243 147 341 35 136 104 700 136 1114 16
208 17 578 1 655 -15 73 -41 111 -73 107 -28 -3 -48 -24 -89 -90 -43 -71 -69
-153 -161 -511 -217 -855 -325 -1134 -531 -1373 -125 -144 -354 -289 -566
-358 -52 -16 -96 -30 -100 -30 -3 0 34 27 84 61 233 159 454 382 523 529 63
132 23 247 -75 217 -18 -6 -102 -62 -186 -125 -259 -195 -374 -265 -593 -360
-368 -159 -603 -411 -735 -787 -71 -204 -211 -818 -236 -1035 l-8 -65 -13 100
c-21 165 -51 304 -174 805 -124 503 -359 790 -811 990 -215 95 -345 175 -573
351 -141 109 -174 129 -219 129 -30 0 -40 -6 -57 -32 -32 -52 -21 -130 30
-221 94 -162 338 -392 580 -544 2 -2 2 -5 0 -7 -7 -7 -191 59 -271 97 -117 56
-244 146 -336 237 -161 160 -267 355 -380 700 -65 198 -85 271 -192 691 -104
407 -119 452 -171 541 -54 92 -90 116 -121 81z"/>
<path d="M1926 3913 c-6 -14 -5 -15 5 -6 7 7 10 15 7 18 -3 3 -9 -2 -12 -12z"/>
<path d="M1975 3830 c26 -11 35 -12 35 -2 0 4 -12 8 -27 9 -24 1 -25 1 -8 -7z"/>
<path d="M2000 3689 c0 -5 5 -7 10 -4 6 3 10 8 10 11 0 2 -4 4 -10 4 -5 0 -10
-5 -10 -11z"/>
<path d="M2012 3645 c-7 -15 -8 -25 -2 -25 6 0 10 -11 10 -25 0 -14 -4 -25 -9
-25 -5 0 -12 -7 -15 -16 -3 -8 -2 -12 4 -9 6 4 10 -14 10 -44 0 -28 -4 -51
-10 -51 -6 0 -6 -9 0 -26 12 -32 13 -47 1 -40 -5 3 -8 -2 -7 -12 1 -12 -6 -17
-24 -17 -25 0 -26 1 -29 58 -1 9 -5 17 -10 17 -13 0 -6 -57 9 -75 7 -8 23 -15
36 -15 43 0 52 32 56 188 2 78 0 142 -3 142 -3 0 -11 -11 -17 -25z"/>
<path d="M2056 3622 c-3 -5 -6 -72 -7 -150 -1 -124 -3 -140 -17 -135 -11 5
-14 2 -9 -9 4 -12 1 -14 -15 -10 -13 3 -26 -1 -32 -10 -6 -9 -20 -18 -31 -21
-11 -2 -1 -5 22 -6 34 -1 48 5 77 33 l36 33 0 142 c0 126 -6 161 -24 133z m11
-64 c-3 -7 -5 -2 -5 12 0 14 2 19 5 13 2 -7 2 -19 0 -25z m0 -115 c-2 -16 -4
-5 -4 22 0 28 2 40 4 28 2 -13 2 -35 0 -50z m0 -80 c-3 -10 -5 -4 -5 12 0 17
2 24 5 18 2 -7 2 -21 0 -30z m-57 -63 c0 -5 -5 -10 -11 -10 -5 0 -7 5 -4 10 3
6 8 10 11 10 2 0 4 -4 4 -10z"/>
<path d="M1918 3543 c6 -2 18 -2 25 0 6 3 1 5 -13 5 -14 0 -19 -2 -12 -5z"/>
<path d="M1920 3507 c-20 -10 -25 -21 -27 -52 -1 -38 -1 -39 5 -7 4 18 10 33
15 32 31 -1 39 3 17 9 l-25 7 28 6 c15 3 27 1 27 -3 0 -5 5 -9 10 -9 6 0 10 7
10 15 0 18 -26 19 -60 2z"/>
<path d="M3870 3505 c-8 -9 -8 -15 -2 -15 12 0 26 19 19 26 -2 2 -10 -2 -17
-11z"/>
<path d="M1845 3480 c3 -5 8 -10 11 -10 2 0 4 5 4 10 0 6 -5 10 -11 10 -5 0
-7 -4 -4 -10z"/>
<path d="M1954 3455 c-24 -18 -7 -19 26 0 16 9 19 14 9 15 -8 0 -24 -7 -35
-15z"/>
<path d="M1830 3450 c0 -5 5 -10 10 -10 6 0 10 5 10 10 0 6 -4 10 -10 10 -5 0
-10 -4 -10 -10z"/>
<path d="M1867 3440 c-4 -14 -6 -34 -6 -45 l0 -20 10 20 c8 16 8 14 5 -11 -6
-39 12 -68 34 -54 13 8 12 10 -3 10 -10 0 -16 3 -13 8 2 4 -1 32 -8 62 -11 46
-13 51 -19 30z"/>
<path d="M3819 3443 c-13 -16 -12 -17 4 -4 16 13 21 21 13 21 -2 0 -10 -8 -17
-17z"/>
<path d="M1516 3427 c3 -10 9 -15 12 -12 3 3 0 11 -7 18 -10 9 -11 8 -5 -6z"/>
<path d="M1832 3395 c-1 -22 6 -53 14 -70 8 -16 12 -21 8 -10 -3 11 -10 43
-14 70 -7 49 -8 49 -8 10z"/>
<path d="M3783 3398 c-15 -20 -25 -38 -20 -38 3 0 12 11 21 25 17 26 16 35 -1
13z"/>
<path d="M3865 3390 c-3 -5 -1 -10 4 -10 6 0 11 5 11 10 0 6 -2 10 -4 10 -3 0
-8 -4 -11 -10z"/>
<path d="M3737 3337 c-3 -8 1 -14 8 -14 7 0 11 6 8 14 -3 7 -6 13 -8 13 -2 0
-5 -6 -8 -13z"/>
<path d="M1920 3310 c-24 -15 -7 -19 20 -5 15 8 19 14 10 14 -8 1 -22 -3 -30
-9z"/>
<path d="M3699 3283 c-13 -16 -12 -17 4 -4 9 7 17 15 17 17 0 8 -8 3 -21 -13z"/>
<path d="M2052 3274 c-7 -8 -22 -14 -32 -14 -11 0 -20 -4 -20 -10 0 -14 10
-12 49 9 19 10 30 20 25 23 -5 3 -15 0 -22 -8z"/>
<path d="M3788 3283 c7 -3 16 -2 19 1 4 3 -2 6 -13 5 -11 0 -14 -3 -6 -6z"/>
<path d="M1920 3249 c0 -5 5 -7 10 -4 6 3 10 8 10 11 0 2 -4 4 -10 4 -5 0 -10
-5 -10 -11z"/>
<path d="M1965 3250 c-3 -5 1 -10 9 -10 9 0 16 5 16 10 0 6 -4 10 -9 10 -6 0
-13 -4 -16 -10z"/>
<path d="M3665 3234 c-9 -15 -12 -23 -6 -20 11 7 35 46 28 46 -3 0 -12 -12
-22 -26z"/>
<path d="M2065 3240 c3 -5 8 -10 11 -10 2 0 4 5 4 10 0 6 -5 10 -11 10 -5 0
-7 -4 -4 -10z"/>
<path d="M2004 3214 c-19 -15 -19 -15 1 -6 11 5 27 12 35 15 13 5 13 6 -1 6
-8 1 -24 -6 -35 -15z"/>
<path d="M2018 3193 c6 -2 18 -2 25 0 6 3 1 5 -13 5 -14 0 -19 -2 -12 -5z"/>
<path d="M1650 3171 c0 -6 4 -13 10 -16 6 -3 7 1 4 9 -7 18 -14 21 -14 7z"/>
<path d="M3622 3163 c1 -4 -3 -18 -10 -30 -17 -31 -8 -29 12 1 10 16 12 27 6
31 -6 4 -9 3 -8 -2z"/>
<path d="M3566 3059 c-10 -17 -15 -33 -12 -36 3 -4 6 -1 6 6 0 7 5 9 12 5 7
-4 8 -3 4 5 -4 6 -2 19 5 27 6 8 10 16 7 19 -2 2 -12 -9 -22 -26z"/>
<path d="M1770 2981 c0 -5 5 -13 10 -16 6 -3 10 -2 10 4 0 5 -4 13 -10 16 -5
3 -10 2 -10 -4z"/>
<path d="M3506 2929 c-9 -23 -15 -43 -13 -46 3 -2 12 15 21 38 9 23 15 43 13
46 -3 2 -12 -15 -21 -38z"/>
<path d="M1837 2884 c-3 -5 3 -20 14 -33 22 -27 25 -17 5 18 -7 13 -16 20 -19
15z"/>
<path d="M1900 2861 c0 -6 4 -13 10 -16 6 -3 7 1 4 9 -7 18 -14 21 -14 7z"/>
<path d="M3472 2833 c-15 -48 -8 -55 8 -8 7 20 10 38 8 41 -3 2 -10 -13 -16
-33z"/>
<path d="M1900 2773 c8 -12 18 -19 22 -17 4 3 8 -3 8 -12 0 -10 3 -15 6 -11 3
3 3 15 -1 27 -4 12 -9 19 -12 16 -4 -3 -13 0 -21 7 -13 11 -14 9 -2 -10z"/>
<path d="M3445 2740 c-4 -17 -5 -34 -2 -36 2 -3 7 10 11 27 8 42 0 50 -9 9z"/>
<path d="M1956 2724 c-6 -15 21 -74 34 -74 3 0 5 16 6 35 0 19 -4 35 -8 35 -5
0 -6 -10 -3 -21 6 -19 5 -20 -7 -8 -8 7 -13 21 -10 31 5 22 -4 24 -12 2z"/>
<path d="M3431 2674 c0 -11 3 -14 6 -6 3 7 2 16 -1 19 -3 4 -6 -2 -5 -13z"/>
<path d="M2050 2652 c0 -24 -25 -48 -35 -32 -3 5 -1 10 4 10 6 0 11 7 11 15 0
21 -17 19 -22 -3 -7 -24 36 -77 53 -67 8 6 11 4 7 -7 -4 -8 0 -15 7 -15 10 0
11 5 4 19 -6 10 -13 17 -17 14 -4 -2 -14 3 -22 12 -13 14 -12 15 4 9 14 -6 17
-4 12 9 -4 11 -2 15 8 11 10 -4 12 0 9 14 -7 27 -23 34 -23 11z"/>
<path d="M3420 2623 c0 -18 2 -33 4 -33 9 0 13 39 5 51 -6 10 -9 4 -9 -18z"/>
<path d="M3412 2550 c0 -19 2 -27 5 -17 2 9 2 25 0 35 -3 9 -5 1 -5 -18z"/>
<path d="M3400 2411 c0 -77 20 -253 29 -264 4 -4 2 36 -6 90 -7 54 -12 126
-11 161 0 34 -2 65 -6 69 -3 3 -6 -22 -6 -56z"/>
<path d="M2260 2310 c0 -13 18 -22 24 -11 3 5 -1 11 -9 15 -8 3 -15 1 -15 -4z"/>
<path d="M3431 2114 c0 -11 3 -14 6 -6 3 7 2 16 -1 19 -3 4 -6 -2 -5 -13z"/>
<path d="M3456 2020 c8 -43 32 -110 33 -90 0 8 -8 40 -19 70 -13 37 -18 44
-14 20z"/>
<path d="M3500 1880 c6 -11 13 -20 16 -20 2 0 0 9 -6 20 -6 11 -13 20 -16 20
-2 0 0 -9 6 -20z"/>
<path d="M3530 1843 c0 -4 11 -21 25 -37 14 -16 25 -26 25 -21 0 4 -11 20 -25
37 -14 16 -25 26 -25 21z"/>
<path d="M3627 1759 c7 -7 15 -10 18 -7 3 3 -2 9 -12 12 -14 6 -15 5 -6 -5z"/>
</g>
</svg>
